HIERARCHY
ROOT Hips
{
	OFFSET 0.00000 0.00000 0.00000
	CHANNELS 6 Xposition Yposition Zposition Zrotation Yrotation Xrotation 
	JOINT LHipJoint
	{
		OFFSET 0 0 0
		CHANNELS 3 Zrotation Yrotation Xrotation
		JOINT LeftHip
		{
			OFFSET 1.75344 -1.53157 0.77399
			CHANNELS 3 Zrotation Yrotation Xrotation
			JOINT LeftKnee
			{
				OFFSET 2.25415 -6.19323 0.00000
				CHANNELS 3 Zrotation Yrotation Xrotation
				JOINT LeftAnkle
				{
					OFFSET 2.30342 -6.32861 0.00000
					CHANNELS 3 Zrotation Yrotation Xrotation
					JOINT LeftToe
					{
						OFFSET 0.10958 -0.30108 1.49206
						CHANNELS 3 Zrotation Yrotation Xrotation
						End Site
						{
							OFFSET 0.00000 -0.00000 0.77783
						}
					}
				}
			}
		}
	}
	JOINT RHipJoint
	{
		OFFSET 0 0 0
		CHANNELS 3 Zrotation Yrotation Xrotation
		JOINT RightHip
		{
			OFFSET -1.81912 -1.53156 0.77399
			CHANNELS 3 Zrotation Yrotation Xrotation
			JOINT RightKnee
			{
				OFFSET -2.22882 -6.12365 0.00000
				CHANNELS 3 Zrotation Yrotation Xrotation
				JOINT RightAnkle
				{
					OFFSET -2.21943 -6.09785 0.00000
					CHANNELS 3 Zrotation Yrotation Xrotation
					JOINT RightToe
					{
						OFFSET -0.18931 -0.52012 1.59379
						CHANNELS 3 Zrotation Yrotation Xrotation
						End Site
						{
							OFFSET -0.00000 -0.00000 0.84686
						}
					}
				}
			}
		}
	}
	JOINT lowerback
	{
		OFFSET 0 0 0
		CHANNELS 3 Zrotation Yrotation Xrotation
		JOINT Chest
		{
			OFFSET -0.00200 1.66634 -0.14248
			CHANNELS 3 Zrotation Yrotation Xrotation
			JOINT Chest2
			{
				OFFSET -0.00875 1.64542 0.09514
				CHANNELS 3 Zrotation Yrotation Xrotation
				JOINT lowerneck
				{
					OFFSET 0 0 0
					CHANNELS 3 Zrotation Yrotation Xrotation
					JOINT Neck
					{
						OFFSET 0.02257 1.59605 0.00839
						CHANNELS 3 Zrotation Yrotation Xrotation
						JOINT Head
						{
							OFFSET -0.10214 1.57530 -0.23335
							CHANNELS 3 Zrotation Yrotation Xrotation
							End Site
							{
								OFFSET -0.03588 1.60717 -0.08062
							}
						}
					}
				}
				JOINT LeftCollar
				{
					OFFSET 0 0 0
					CHANNELS 3 Zrotation Yrotation Xrotation
					JOINT LeftShoulder
					{
						OFFSET 2.54983 1.10186 0.40078
CHANNELS 3 Zrotation Xrotation Yrotation
						JOINT LeftElbow
						{
OFFSET 0 -4.288400 0.000000
CHANNELS 3 Zrotation Xrotation Yrotation
							JOINT LeftWrist
							{
OFFSET 0 -3.065520 -0.000000
CHANNELS 3 Zrotation Xrotation Yrotation
								JOINT lhand
								{
									OFFSET 0 0 0
CHANNELS 3 Zrotation Xrotation Yrotation
									JOINT LFingers
									{
OFFSET 0 -0.753040 0.000000
CHANNELS 3 Zrotation Xrotation Yrotation
										End Site
										{
OFFSET 0 -0.607120 0.000000
										}
									}
								}
								JOINT LThumb
								{
OFFSET 0 0.000000 0.000000
CHANNELS 3 Zrotation Xrotation Yrotation
									End Site
									{
OFFSET 0 -0.616390 0.616390
									}
								}
							}
						}
					}
				}
				JOINT RightCollar
				{
					OFFSET 0 0 0
					CHANNELS 3 Zrotation Yrotation Xrotation
					JOINT RightShoulder
					{
						OFFSET -2.60909 1.35448 0.21802
CHANNELS 3 Zrotation Xrotation Yrotation
						JOINT RightElbow
						{
OFFSET 0 -4.521720 -0.000000
CHANNELS 3 Zrotation Xrotation Yrotation
							JOINT RightWrist
							{
OFFSET 0 -2.891400 0.000000
CHANNELS 3 Zrotation Xrotation Yrotation
								JOINT rhand
								{
									OFFSET 0 0 0
CHANNELS 3 Zrotation Xrotation Yrotation
									JOINT RFingers
									{
OFFSET 0 -0.680540 0.000000
CHANNELS 3 Zrotation Xrotation Yrotation
										End Site
										{
OFFSET 0 -0.548670 0.000000
										}
									}
								}
								JOINT RThumb
								{
OFFSET 0 0.000000 0.000000
CHANNELS 3 Zrotation Xrotation Yrotation
									End Site
									{
OFFSET 0 -0.557050 0.557050
									}
								}
							}
						}
					}
				}
			}
		}
	}
}
MOTION
Frames: 12
Frame Time: 0.008333333333333333
-3.822289 15.139088 -30.603469 -183.246506 33.399743 181.784586 0.000000 0.000000 0.000000 -8.387500 -29.799123 -24.691985 4.069587 12.243032 36.610820 0.897357 14.683480 -28.532029 3.993857 -12.151202 -36.270414 0.000000 0.000000 0.000000 38.942505 16.358730 10.138519 -0.693929 -5.321581 14.828896 -0.163215 -11.127679 -18.014893 -2.538802 -9.904809 28.671954 -1.825874 0.046641 7.558340 1.456151 0.010755 -3.687652 2.562960 0.164715 -8.141810 -17.625739 -15.271649 6.856370 23.510040 -22.407304 6.089042 8.891835 -11.043114 5.482462 0.000000 0.000000 0.000000 -2.100720 35.304661 -31.584530 17.350692 -27.317628 4.247115 -22.654736 10.315148 15.755689 0.000000 0.000000 0.000000 -7.125000 0.000000 0.000000 -31.717763 13.984782 -27.875081 0.000000 0.000000 0.000000 -13.639763 3.558912 51.990353 -33.391560 -43.627164 -13.692057 -1.144034 4.934599 55.042540 0.000000 0.000000 0.000000 7.125000 0.000000 0.000000 78.148643 72.246684 -59.359840
-3.612521 15.130793 -31.008879 -183.029728 35.831266 182.181100 0.000000 0.000000 0.000000 -5.402483 -38.382607 -23.701661 2.766375 10.303186 29.967666 1.095538 17.103927 -32.280568 4.165717 -12.371522 -37.068325 0.000000 0.000000 0.000000 39.243079 14.878100 13.053322 -0.459504 -4.346677 12.054315 -0.050142 -11.229947 -16.684645 -2.851005 -10.449474 30.445308 -1.277192 0.192375 7.504653 1.500943 0.272170 -3.683632 2.262845 0.265203 -8.117273 -17.960399 -15.422904 6.029167 22.962871 -22.719277 7.434479 8.623914 -11.114557 6.068639 0.000000 0.000000 0.000000 -0.623050 33.885751 -29.061177 16.382567 -26.036209 3.812639 -17.496502 23.853129 22.700194 0.000000 0.000000 0.000000 -7.125000 0.000000 0.000000 -27.880291 8.125440 -27.196445 0.000000 0.000000 0.000000 -13.578407 2.490799 53.322348 -35.305661 -45.026454 -15.030049 2.152533 3.727247 54.784759 0.000000 0.000000 0.000000 7.125000 0.000000 0.000000 78.765202 71.046044 -58.499472
-3.378112 15.112011 -31.415422 -182.833184 38.422640 182.839235 0.000000 0.000000 0.000000 -0.439263 -51.461991 -23.013580 2.173953 9.218570 26.482070 2.852036 17.842044 -41.844907 1.632431 -7.376531 -21.222646 0.000000 0.000000 0.000000 39.309768 13.999091 15.220025 -0.358535 -3.846273 10.644684 0.028048 -11.334722 -15.725627 -2.105825 -9.079230 26.046406 -0.816743 0.430873 7.076352 1.552061 0.659989 -3.892276 2.001832 0.437401 -8.105983 -18.243355 -15.074134 6.109412 22.875539 -22.309415 7.817569 8.712509 -10.922578 6.104408 0.000000 0.000000 0.000000 1.027146 32.170225 -25.612955 15.824035 -25.281478 3.570520 -15.857020 30.043499 24.336640 0.000000 0.000000 0.000000 -7.125000 0.000000 0.000000 -26.806642 6.717419 -26.679179 0.000000 0.000000 0.000000 -13.465150 2.108123 54.192458 -36.803192 -46.057573 -16.098203 2.806279 3.607847 54.261949 0.000000 0.000000 0.000000 7.125000 0.000000 0.000000 77.598276 70.702028 -56.945875
-3.145978 15.089075 -31.831449 -183.232828 40.417999 182.695893 0.000000 0.000000 0.000000 -1.118216 -52.402930 -22.871527 1.955949 8.773732 25.090106 2.990667 15.651224 -40.945857 1.480136 -7.667782 -21.718448 0.000000 0.000000 0.000000 38.395104 12.495164 17.013018 -0.333318 -3.710370 10.263214 -0.096492 -9.644071 -15.260534 -2.078437 -9.027582 25.881653 -0.419236 0.485144 7.092456 1.413836 0.770242 -4.066065 1.616367 0.468658 -8.299140 -18.001450 -14.914396 6.050144 22.269188 -22.049829 8.045852 8.513705 -10.801228 6.018832 0.000000 0.000000 0.000000 2.907062 30.142836 -22.623136 15.422971 -24.731946 3.400922 -15.080099 29.043334 23.931420 0.000000 0.000000 0.000000 -7.125000 0.000000 0.000000 -26.446648 7.126022 -25.983218 0.000000 0.000000 0.000000 -13.340106 2.037629 55.084648 -36.861600 -46.096557 -16.140263 -0.184945 6.165565 54.123444 0.000000 0.000000 0.000000 7.125000 0.000000 0.000000 75.808768 71.709373 -56.459630
-2.895619 15.039037 -32.246656 -182.927880 42.390848 182.768309 0.000000 0.000000 0.000000 -5.129716 -44.814963 -21.997803 1.943224 8.746860 25.006708 1.363111 13.024055 -30.167160 5.541714 -13.969096 -43.113695 0.000000 0.000000 0.000000 37.540515 10.377849 17.765152 -0.402023 -4.070603 11.275300 -0.278679 -6.738336 -14.660113 -1.892563 -8.638584 24.671208 0.097890 0.417484 6.932534 1.652357 0.758278 -4.077888 1.579421 0.444370 -8.214855 -18.209968 -14.576167 5.804503 21.817821 -21.599383 8.531647 8.443944 -10.579551 6.079050 0.000000 0.000000 0.000000 4.107740 28.054996 -17.758174 15.414968 -24.721069 3.397613 -14.060695 29.653092 24.520404 0.000000 0.000000 0.000000 -7.125000 0.000000 0.000000 -25.835934 6.620849 -25.504253 0.000000 0.000000 0.000000 -12.952228 2.479434 54.789955 -35.418107 -45.108360 -15.108791 -8.108864 14.954726 53.405364 0.000000 0.000000 0.000000 7.125000 0.000000 0.000000 69.963106 74.378749 -54.101280
-2.621365 15.003988 -32.665716 -182.292698 44.181605 182.350147 0.000000 0.000000 0.000000 -7.693683 -42.297970 -19.110022 2.106188 9.083723 26.057593 1.708438 3.624447 -26.216155 2.779546 -10.307204 -29.997519 0.000000 0.000000 0.000000 36.958945 8.096274 18.929285 -0.523230 -4.633694 12.867106 -0.357906 -4.344084 -13.744983 -1.813467 -8.462058 24.129112 0.984926 0.254953 7.073963 1.728711 0.638077 -3.938991 1.176965 0.338001 -8.135966 -17.867232 -14.275065 5.803980 21.104457 -21.179430 9.306012 8.226180 -10.357107 6.100308 0.000000 0.000000 0.000000 5.905666 26.127596 -13.975898 15.771965 -25.210480 3.548264 -12.571899 27.923157 24.819462 0.000000 0.000000 0.000000 -7.125000 0.000000 0.000000 -25.005388 6.384635 -24.605793 0.000000 0.000000 0.000000 -12.006584 3.465299 53.358438 -33.011311 -43.337921 -13.430119 -14.248658 22.627827 50.319511 0.000000 0.000000 0.000000 7.125000 0.000000 0.000000 55.658723 75.578260 -42.670292
-2.337444 15.033504 -33.074390 -182.943104 46.689332 181.578658 0.000000 0.000000 0.000000 -9.916241 -40.014963 -16.551603 2.126718 9.125010 26.187337 1.199317 4.168448 -22.582368 1.241259 -7.052973 -19.877351 0.000000 0.000000 0.000000 34.686567 6.135907 16.778915 -1.132582 -6.742795 18.961999 -0.358756 -1.180830 -11.812644 -1.420573 -7.535126 21.311782 0.462890 0.388961 7.149569 1.812376 0.778883 -4.147192 1.539913 0.441136 -8.415756 -17.934381 -14.025830 5.804875 20.752280 -20.913372 10.441111 8.164446 -10.192653 6.361898 0.000000 0.000000 0.000000 7.180769 24.024773 -10.656074 15.877704 -25.354495 3.593391 -13.300019 26.755718 24.645625 0.000000 0.000000 0.000000 -7.125000 0.000000 0.000000 -25.415560 6.528038 -25.032805 0.000000 0.000000 0.000000 -11.447968 4.205565 51.430445 -29.730841 -40.658159 -11.235106 -13.916961 23.243870 50.095837 0.000000 0.000000 0.000000 7.125000 0.000000 0.000000 55.114102 75.341970 -41.974320
-2.027412 15.106576 -33.454514 -185.304691 49.421815 179.534314 0.000000 0.000000 0.000000 -13.253634 -34.991546 -13.653944 1.862422 8.572710 24.468031 0.580835 8.294409 -19.636491 3.558555 -11.050502 -33.063768 0.000000 0.000000 0.000000 30.994134 4.822424 11.624559 -2.702951 -10.178946 29.575963 -0.163291 1.615680 -7.176444 -0.513225 -4.586873 12.734659 -0.802508 0.616259 6.904418 1.153991 0.877198 -4.066505 1.543935 0.529941 -8.194524 -17.432577 -13.816286 5.142689 20.632630 -20.642845 11.605146 8.051235 -9.951675 6.712765 0.000000 0.000000 0.000000 9.314207 21.475449 -8.680627 16.009492 -25.533499 3.650103 -13.730986 26.260746 24.591239 0.000000 0.000000 0.000000 -7.125000 0.000000 0.000000 -25.652086 6.565842 -25.305542 0.000000 0.000000 0.000000 -9.964415 5.048754 48.943639 -25.833942 -37.040851 -8.788797 -13.094990 22.458234 50.833478 0.000000 0.000000 0.000000 7.125000 0.000000 0.000000 58.251308 75.359852 -44.689785
-1.718557 15.176033 -33.806829 -187.864299 51.569752 176.955614 0.000000 0.000000 0.000000 -16.570571 -30.882319 -10.374019 1.572297 7.910724 22.443908 0.453721 7.166594 -17.345104 5.122776 -13.498522 -41.306085 0.000000 0.000000 0.000000 27.050974 3.743833 5.585957 -5.182036 -13.567593 41.566931 0.017802 2.696737 0.195223 -0.158549 -2.561650 7.060783 -2.006311 0.542140 7.184614 0.556129 0.586455 -3.824927 1.630086 0.425584 -8.095701 -16.974594 -13.529972 4.788430 20.378680 -20.212030 11.869389 7.938603 -9.710126 6.685808 0.000000 0.000000 0.000000 11.609409 18.935092 -8.139308 16.272213 -25.888303 3.764057 -15.294582 27.196763 23.841859 0.000000 0.000000 0.000000 -7.125000 0.000000 0.000000 -26.570361 7.196160 -26.100003 0.000000 0.000000 0.000000 -9.656914 6.925141 47.838980 -23.941017 -35.101489 -7.672805 -13.367006 22.683036 52.440620 0.000000 0.000000 0.000000 7.125000 0.000000 0.000000 64.067853 76.075015 -50.589705
-1.423359 15.252959 -34.121661 -190.340386 53.676329 174.609618 0.000000 0.000000 0.000000 -19.490428 -28.149751 -6.880976 1.256538 7.104236 20.025427 0.403849 8.452371 -17.943907 4.112524 -12.308607 -36.832739 0.000000 0.000000 0.000000 23.879598 4.162407 -1.232166 -8.284686 -16.312813 53.562813 -0.070361 1.455576 5.730220 -0.682067 -5.279841 14.708609 -3.195422 0.297584 7.639108 0.304283 0.092395 -3.691133 2.104187 0.238155 -8.201298 -16.711361 -13.179727 4.316012 19.756212 -19.651935 12.060920 7.734072 -9.438974 6.614084 0.000000 0.000000 0.000000 13.387142 16.421726 -7.701327 16.557452 -26.270649 3.889404 -16.156478 27.916270 24.900587 0.000000 0.000000 0.000000 -7.125000 0.000000 0.000000 -26.893834 6.182782 -27.104915 0.000000 0.000000 0.000000 -10.473650 8.161974 48.713349 -22.480930 -33.514655 -6.850234 -16.134240 25.724043 49.403614 0.000000 0.000000 0.000000 7.125000 0.000000 0.000000 51.045823 75.862763 -39.028170
-1.119271 15.315961 -34.405241 -193.132731 55.960302 171.857760 0.000000 0.000000 0.000000 -22.443473 -26.770500 -2.530618 0.920548 6.111063 17.107529 0.161530 11.527043 -18.500135 4.015423 -12.180431 -36.373920 0.000000 0.000000 0.000000 20.833967 4.773811 -8.276613 -11.241196 -18.044917 63.554821 -0.071040 -2.164713 4.768351 -0.818117 -5.753617 16.075924 -4.489012 0.126509 8.113414 -0.040228 -0.328882 -3.416231 2.531244 0.084828 -8.159035 -16.475441 -12.697350 4.003765 19.690477 -18.964005 12.069651 7.752437 -9.094968 6.499885 0.000000 0.000000 0.000000 15.570360 13.618881 -8.268239 16.510524 -26.207941 3.868661 -14.919750 25.968094 24.830437 0.000000 0.000000 0.000000 -7.125000 0.000000 0.000000 -26.255458 6.302855 -26.212737 0.000000 0.000000 0.000000 -11.266339 9.064808 49.564211 -21.612848 -32.535964 -6.376723 -18.492950 28.473098 48.672051 0.000000 0.000000 0.000000 7.125000 0.000000 0.000000 46.512067 76.392052 -35.721774
-0.821777 15.354342 -34.688004 -194.805446 58.354842 169.978820 0.000000 0.000000 0.000000 -24.439996 -25.360270 1.422123 0.681272 5.276382 14.698684 -0.075135 14.382194 -19.578622 4.174021 -12.388365 -37.120290 0.000000 0.000000 0.000000 19.439180 4.368912 -15.367736 -13.713158 -19.022463 71.324605 0.057939 -4.320205 -1.333757 -0.014841 -0.008158 0.023317 -4.954875 0.023393 8.743996 -0.073423 -0.560239 -3.314097 2.799125 -0.000969 -8.397814 -15.925735 -12.505805 3.495540 18.901698 -18.640359 12.861694 7.415950 -8.897749 6.635180 0.000000 0.000000 0.000000 17.394237 10.692073 -8.064083 16.210395 -25.805059 3.737135 -14.404868 27.656648 24.873890 0.000000 0.000000 0.000000 -7.125000 0.000000 0.000000 -25.978830 6.282464 -25.872563 0.000000 0.000000 0.000000 -12.329496 10.215820 48.921776 -21.044553 -31.880291 -6.073472 -19.432623 30.151116 48.741654 0.000000 0.000000 0.000000 7.125000 0.000000 0.000000 45.927569 76.808536 -35.594115
